<?xml version="1.0" standalone="no"?>
<!DOCTYPE svg PUBLIC "-//W3C//DTD SVG 20010904//EN"
 "http://www.w3.org/TR/2001/REC-SVG-20010904/DTD/svg10.dtd">
<svg version="1.0" xmlns="http://www.w3.org/2000/svg"
 width="239.000000pt" height="239.000000pt" viewBox="0 0 239.000000 239.000000"
 preserveAspectRatio="xMidYMid meet">
<metadata>
Created by potrace 1.11, written by Peter Selinger 2001-2013
</metadata>
<g transform="translate(0.000000,239.000000) scale(0.100000,-0.100000)"
fill="#000000" stroke="none">
<path d="M1132 2052 l-104 -57 6 -40 c3 -22 10 -63 16 -92 11 -50 12 -52 36
-42 38 14 80 11 94 -6 30 -36 6 -143 -47 -213 l-25 -33 22 -122 c24 -139 40
-173 96 -204 55 -32 164 -31 255 1 73 25 184 94 249 152 91 82 170 222 170
301 l0 37 -29 -46 c-64 -101 -215 -169 -277 -124 -14 11 -16 19 -9 29 80 110
115 192 115 268 0 113 -64 169 -193 169 -70 0 -122 -13 -218 -54 -14 -6 -19 4
-30 63 -7 39 -15 71 -18 71 -3 0 -53 -26 -109 -58z"/>
<path d="M740 1834 c-113 -62 -209 -115 -213 -116 -5 -2 19 -145 52 -317 34
-173 61 -318 61 -323 0 -4 4 -8 9 -8 10 0 401 217 415 231 6 5 3 45 -8 104
l-18 94 -29 -14 c-73 -38 -127 -2 -115 76 7 45 36 108 73 155 l23 31 -20 98
c-11 54 -21 99 -23 100 -1 1 -94 -49 -207 -111z"/>
<path d="M367 823 c-4 -3 -7 -48 -7 -100 0 -86 1 -93 20 -93 17 0 20 7 20 43
l1 42 20 -25 c12 -14 27 -33 34 -43 9 -13 20 -17 34 -12 21 6 21 7 -6 41 -20
26 -23 38 -15 46 21 21 14 75 -10 92 -23 16 -79 22 -91 9z m76 -47 c6 -16 -11
-36 -30 -36 -7 0 -13 11 -13 25 0 18 5 25 19 25 10 0 21 -6 24 -14z"/>
<path d="M568 815 c-35 -20 -48 -44 -48 -93 0 -57 37 -92 97 -92 127 0 143
182 18 196 -25 3 -50 -1 -67 -11z m80 -41 c41 -28 23 -104 -25 -104 -57 0 -83
60 -43 100 24 24 38 25 68 4z"/>
<path d="M1257 823 c-4 -3 -7 -48 -7 -100 0 -86 1 -93 20 -93 16 0 20 7 20 35
0 19 3 35 8 35 4 0 21 -16 37 -36 22 -26 35 -33 48 -28 16 6 15 9 -8 40 -25
32 -25 35 -9 59 21 33 11 73 -22 85 -29 11 -78 13 -87 3z m77 -42 c10 -16 -5
-41 -25 -41 -14 0 -19 7 -19 25 0 18 5 25 19 25 11 0 22 -4 25 -9z"/>
<path d="M1430 731 l0 -101 54 0 c73 0 106 27 113 91 4 38 1 50 -19 74 -21 24
-34 29 -86 33 l-62 4 0 -101z m110 39 c11 -11 20 -29 20 -40 0 -27 -43 -70
-70 -70 -18 0 -20 6 -20 65 0 63 1 65 25 65 14 0 34 -9 45 -20z"/>
<path d="M740 805 c0 -9 9 -15 25 -15 25 0 25 -1 25 -80 0 -73 2 -80 20 -80
17 0 19 8 22 78 3 76 3 77 31 80 15 2 27 9 27 18 0 11 -17 14 -75 14 -60 0
-75 -3 -75 -15z"/>
<path d="M910 806 c0 -9 12 -16 28 -18 27 -3 27 -4 30 -80 3 -70 5 -78 22 -78
18 0 20 7 20 80 0 79 0 80 25 80 16 0 25 6 25 15 0 12 -15 15 -75 15 -58 0
-75 -3 -75 -14z"/>
<path d="M1090 725 l0 -95 60 0 c53 0 60 2 60 20 0 17 -7 20 -40 20 -33 0 -40
3 -40 20 0 16 7 20 35 20 28 0 35 4 35 20 0 16 -7 20 -35 20 -28 0 -35 4 -35
20 0 17 7 20 40 20 29 0 40 4 40 15 0 12 -13 15 -60 15 l-60 0 0 -95z"/>
<path d="M1670 796 c-5 -14 -23 -57 -39 -96 l-30 -70 23 0 c17 0 26 7 30 25 5
21 12 25 41 25 29 0 37 -5 45 -25 9 -23 50 -37 50 -17 0 5 -15 46 -34 93 -26
64 -39 85 -55 87 -15 2 -24 -4 -31 -22z m43 -66 c4 -15 0 -20 -14 -20 -20 0
-23 8 -13 34 7 20 20 13 27 -14z"/>
<path d="M1845 808 c-2 -7 -13 -50 -23 -96 l-19 -83 21 3 c16 2 23 14 32 53
l11 50 24 -52 c31 -68 50 -68 80 0 l23 52 14 -52 c12 -44 19 -53 37 -53 l22 0
-21 92 c-28 119 -44 126 -84 37 l-28 -62 -27 61 c-25 59 -52 80 -62 50z"/>
<path d="M632 502 c-9 -6 -12 -33 -10 -98 3 -74 6 -89 20 -92 14 -3 17 7 20
58 l3 62 45 -61 c25 -33 53 -60 63 -61 15 0 17 11 17 95 0 87 -2 95 -19 95
-17 0 -20 -8 -23 -52 l-3 -52 -44 57 c-46 60 -48 62 -69 49z"/>
<path d="M1265 498 c-3 -8 -5 -52 -3 -99 3 -70 6 -84 21 -87 13 -3 17 4 17 31
0 50 10 51 42 7 32 -43 35 -45 57 -31 11 7 9 15 -13 44 -23 30 -24 36 -11 47
18 15 19 50 2 74 -18 24 -104 35 -112 14z m78 -42 c7 -17 -18 -40 -33 -31 -5
3 -10 15 -10 26 0 23 35 27 43 5z"/>
<path d="M1462 495 c-37 -27 -27 -75 21 -98 45 -23 49 -47 8 -47 -17 0 -33 5
-36 10 -9 15 -25 2 -25 -20 0 -14 10 -21 35 -26 51 -9 81 2 95 35 16 39 1 66
-45 81 -19 6 -35 16 -35 21 0 16 32 23 51 11 15 -9 19 -8 24 9 8 26 5 29 -36
35 -23 3 -42 0 -57 -11z"/>
<path d="M1670 490 c0 -15 6 -20 25 -20 25 0 25 -1 25 -80 0 -73 2 -80 20 -80
18 0 20 7 20 80 l0 80 31 0 c24 0 30 4 27 18 -3 14 -16 18 -76 20 -67 3 -72 1
-72 -18z"/>
<path d="M420 425 c0 -91 17 -115 79 -115 59 0 81 33 81 121 0 62 -2 69 -20
69 -18 0 -20 -7 -20 -70 0 -59 -3 -71 -20 -80 -14 -8 -26 -8 -40 0 -17 9 -20
21 -20 80 0 63 -2 70 -20 70 -18 0 -20 -7 -20 -75z"/>
<path d="M840 404 c0 -86 2 -95 18 -92 14 3 17 17 20 96 3 87 2 92 -18 92 -19
0 -20 -6 -20 -96z"/>
<path d="M900 498 c0 -2 15 -43 34 -93 45 -119 59 -120 103 -6 39 100 39 103
11 99 -14 -2 -25 -15 -35 -43 -21 -60 -29 -61 -49 -6 -14 41 -22 51 -41 51
-13 0 -23 -1 -23 -2z"/>
<path d="M1102 408 l3 -93 60 0 c49 0 60 3 63 18 3 14 -4 17 -43 17 -42 0 -46
2 -43 23 2 17 11 23 36 25 46 5 43 32 -4 32 -28 0 -35 3 -32 18 2 12 14 18 41
20 24 2 37 8 37 18 0 11 -15 14 -60 14 l-61 0 3 -92z"/>
<path d="M1600 405 c0 -88 1 -95 20 -95 19 0 20 7 20 95 0 88 -1 95 -20 95
-19 0 -20 -7 -20 -95z"/>
<path d="M1846 488 c4 -7 20 -32 36 -55 19 -29 28 -54 28 -82 0 -34 3 -41 20
-41 17 0 20 7 20 43 0 31 9 57 30 90 35 56 36 57 11 57 -11 0 -28 -13 -38 -30
-9 -16 -20 -30 -23 -30 -3 0 -14 14 -23 30 -13 21 -26 30 -43 30 -17 0 -23 -4
-18 -12z"/>
</g>
</svg>
