<svg xmlns="http://www.w3.org/2000/svg" viewBox="0 0 59.56 72.11"><defs><style>.cls-1{fill:#d00244;}.cls-2{fill:#fff;}.cls-3{fill:#acabab;stroke:#acabab;stroke-width:0.28px;}</style></defs><title>hr-logo</title><g id="Layer_2" data-name="Layer 2"><g id="Laag_1" data-name="Laag 1"><path class="cls-1" d="M49.52,0H10S0,0,0,10v39.5s0,10,10,10H59.56V10S59.56,0,49.52,0Z"/><path class="cls-2" d="M39.32,20a13.26,13.26,0,0,0,3-5.2,6.35,6.35,0,0,0,.14-2.72c-.72-3.72-5.47-4.43-10.64-1.61l-.7-3.67-5.47,3,.88,4.6a3.94,3.94,0,0,1,1.65-.64c1.74-.18,2.23,1.71,1.1,4.23a10.46,10.46,0,0,1-1.58,2.48l1,5.39h0l0,.1h0c.79,3.65,5.55,4.32,10.71,1.47s8.69-8,8.16-11.74c-.21,1.48-1.68,3.32-3.65,4.41s-4,1.07-4.6-.11Z"/><path class="cls-2" d="M24,22.94c-1.75.18-2.24-1.72-1.11-4.24A10.73,10.73,0,0,1,24.75,16l-1-5.08L13,16.81,16.11,33,26.88,27l-.95-4.92a4.24,4.24,0,0,1-1.9.82Z"/><path class="cls-2" d="M12.41,51.86A1.78,1.78,0,0,1,10.47,50V47h1v3a1,1,0,0,0,1,1.06.93.93,0,0,0,1-1V47h1v3A1.83,1.83,0,0,1,12.41,51.86Z"/><path class="cls-2" d="M19,51.88l-2.48-3.2v3.1h-.9V47.06l.78-.14L18.87,50V47h.93v4.72Z"/><path class="cls-2" d="M20.89,51.78V47h1v4.79Z"/><path class="cls-2" d="M25.07,51.78h-.84L22.46,47h1.09l1.13,2.95L25.83,47h1.09Z"/><path class="cls-2" d="M27.59,51.78V47h2.9v.86h-1.9v1h1.74v.87H28.59v1.18h2.08v.87Z"/><path class="cls-2" d="M34.29,51.8l-1.38-1.89h-.3v1.87h-1V47s.83-.06,1.41-.06c1.14,0,1.68.54,1.68,1.47A1.51,1.51,0,0,1,34,49.76l1.4,1.83Zm-1.21-4-.48,0V49.1s.29,0,.48,0a.67.67,0,0,0,0-1.33Z"/><path class="cls-2" d="M37.44,51.86a3,3,0,0,1-1.69-.47l.21-1a2.86,2.86,0,0,0,1.41.59c.44,0,.7-.21.7-.49a.59.59,0,0,0-.49-.59l-.65-.21a1.26,1.26,0,0,1-1-1.42,1.51,1.51,0,0,1,1.58-1.35,2.25,2.25,0,0,1,1.48.39l-.23,1a1.64,1.64,0,0,0-1.19-.5c-.35,0-.61.2-.61.41s.14.4.5.52l.6.19a1.37,1.37,0,0,1,1.1,1.47A1.59,1.59,0,0,1,37.44,51.86Z"/><path class="cls-2" d="M40,51.78V47h1v4.79Z"/><polygon class="cls-2" points="44.03 47.92 44.03 51.8 43.05 51.8 43.05 47.93 41.68 47.93 41.68 46.98 45.39 46.98 45.39 47.92 44.03 47.92"/><path class="cls-2" d="M48.73,49.68v2.1h-1v-2L45.85,47h1.23l1.17,1.74L49.4,47h1.08Z"/><path class="cls-2" d="M11.71,43.83l-1.39-1.89H10v1.88H9V39s.84-.07,1.42-.07c1.15,0,1.7.55,1.7,1.48a1.52,1.52,0,0,1-.77,1.36l1.4,1.84Zm-1.22-4-.47,0v1.28s.29,0,.47,0a.63.63,0,0,0,.66-.7A.62.62,0,0,0,10.49,39.81Z"/><path class="cls-2" d="M15.37,43.92a2.38,2.38,0,0,1-2.45-2.42,2.5,2.5,0,0,1,2.53-2.59A2.37,2.37,0,0,1,18,41.35,2.48,2.48,0,0,1,15.37,43.92Zm.06-4.06a1.57,1.57,0,0,0,0,3.13,1.57,1.57,0,0,0,0-3.13Z"/><polygon class="cls-2" points="20.81 39.93 20.81 43.81 19.82 43.81 19.82 39.95 18.45 39.95 18.45 39 22.16 39 22.16 39.93 20.81 39.93"/><polygon class="cls-2" points="25.18 39.93 25.18 43.81 24.19 43.81 24.19 39.95 22.82 39.95 22.82 39 26.54 39 26.54 39.93 25.18 39.93"/><polygon class="cls-2" points="27.26 43.81 27.26 38.99 30.17 38.99 30.17 39.86 28.25 39.86 28.25 40.88 30.01 40.88 30.01 41.75 28.25 41.75 28.25 42.94 30.35 42.94 30.35 43.81 27.26 43.81"/><path class="cls-2" d="M34,43.83l-1.39-1.89h-.29v1.88h-1V39s.85-.07,1.43-.07c1.14,0,1.69.55,1.69,1.48a1.52,1.52,0,0,1-.77,1.36l1.41,1.84Zm-1.22-4-.47,0v1.28s.29,0,.47,0a.63.63,0,0,0,.66-.7A.62.62,0,0,0,32.81,39.81Z"/><path class="cls-2" d="M37.27,43.9a13.33,13.33,0,0,1-1.53-.11V39s.87-.09,1.58-.09c1.91,0,2.65,1,2.65,2.29A2.47,2.47,0,0,1,37.27,43.9Zm.17-4.09c-.26,0-.7,0-.7,0V43a2.73,2.73,0,0,0,.74.08,1.58,1.58,0,0,0,1.46-1.7A1.49,1.49,0,0,0,37.44,39.81Z"/><path class="cls-2" d="M43.76,43.83l-.49-1.21H41.58l-.49,1.19h-1l2-4.81h.85l1.88,4.82Zm-1.31-3.57-.61,1.58H43Z"/><polygon class="cls-2" points="50.56 43.83 49.9 41.04 48.63 43.82 47.92 43.82 46.68 41.04 46.08 43.82 45.12 43.81 46.18 39.07 47 39.07 48.34 42.27 49.81 39 50.53 39 51.66 43.81 50.56 43.83"/><path class="cls-3" d="M14.56,65.89a1.2,1.2,0,0,1-1.26-1.34V62.29h.48V64.5a.87.87,0,0,0,.87,1,.8.8,0,0,0,.86-.9V62.29H16v2.28A1.31,1.31,0,0,1,14.56,65.89Z"/><path class="cls-3" d="M19.34,65.88,17.4,63.24v2.59h-.46V62.31l.39-.08,2,2.75V62.31h.45v3.5Z"/><path class="cls-3" d="M20.7,65.83V62.3h.49v3.53Z"/><path class="cls-3" d="M23.48,65.83H23L21.8,62.32l.54-.07L23.29,65l1-2.76.46.08Z"/><path class="cls-3" d="M25.41,65.83V62.3h1.82v.43H25.9v1h1.2v.43H25.9v1.2h1.47v.43Z"/><path class="cls-3" d="M30.06,65.88l-.91-1.33a.72.72,0,0,0-.16-.2.4.4,0,0,0-.2,0h-.14v1.51h-.49V62.32c.07,0,.59,0,.9,0,.79,0,1.11.3,1.11.95a1,1,0,0,1-.73,1,.53.53,0,0,1,.26.24l.88,1.27Zm-1-3.2a2.05,2.05,0,0,0-.36,0v1.18l.28,0c.36,0,.76-.12.76-.65S29.42,62.68,29,62.68Z"/><path class="cls-3" d="M32.06,65.88A1.87,1.87,0,0,1,31,65.56l.1-.52a1.54,1.54,0,0,0,.89.4c.42,0,.67-.17.67-.49s-.3-.49-.66-.69c-.55-.32-.92-.44-.92-1.07a1,1,0,0,1,1.06-.93,1.81,1.81,0,0,1,.91.24l-.12.5a1.35,1.35,0,0,0-.79-.3c-.31,0-.53.18-.53.42s.47.54.72.69.84.42.84,1.06A1,1,0,0,1,32.06,65.88Z"/><path class="cls-3" d="M33.89,65.83V62.3h.49v3.53Z"/><path class="cls-3" d="M36.63,62.75v3.08h-.48V62.75H35V62.3H37.7v.45Z"/><path class="cls-3" d="M39.89,64.17v1.66H39.4V64.24l-1.21-1.85.49-.18,1,1.49.9-1.49.43.18Z"/><path class="cls-3" d="M44.31,65.89a1.64,1.64,0,0,1-1.71-1.74,1.72,1.72,0,0,1,1.72-1.9A1.67,1.67,0,0,1,46.1,64,1.71,1.71,0,0,1,44.31,65.89Zm0-3.19c-.73,0-1.16.5-1.16,1.39a1.2,1.2,0,0,0,1.2,1.35,1.18,1.18,0,0,0,1.2-1.35C45.55,63.19,45.06,62.7,44.31,62.7Z"/><path class="cls-3" d="M47.31,62.74V63.8h1.21v.45H47.31v1.58h-.49V62.3h1.81v.44Z"/><path class="cls-3" d="M12.08,71.94l-.44-1.12h-1.3l-.45,1.12-.42-.13,1.31-3.48h.49l1.28,3.48ZM11,69l-.49,1.36h1Z"/><path class="cls-3" d="M14.14,70.39a2.48,2.48,0,0,1-.46,0v1.52h-.49V68.37a8.59,8.59,0,0,1,.89-.05c.68,0,1.12.28,1.12,1A1,1,0,0,1,14.14,70.39Zm-.08-1.64a2,2,0,0,0-.38,0V69.9a1.79,1.79,0,0,0,.4,0,.59.59,0,0,0,.62-.63A.57.57,0,0,0,14.06,68.75Z"/><path class="cls-3" d="M16.83,70.39a2.48,2.48,0,0,1-.46,0v1.52h-.48V68.37a8.12,8.12,0,0,1,.88-.05c.69,0,1.12.28,1.12,1A1,1,0,0,1,16.83,70.39Zm-.08-1.64a2.14,2.14,0,0,0-.38,0V69.9a1.79,1.79,0,0,0,.4,0,.59.59,0,0,0,.63-.63C17.4,69,17.13,68.75,16.75,68.75Z"/><path class="cls-3" d="M18.6,71.88V68.35h.49v3.09h1.47v.44Z"/><path class="cls-3" d="M21.27,71.88V68.35h.49v3.53Z"/><path class="cls-3" d="M22.67,71.88V68.35h1.82v.43H23.16v1h1.21v.43H23.16v1.19h1.47v.44Z"/><path class="cls-3" d="M26.51,71.92a8.32,8.32,0,0,1-1.06-.06V68.37c.26,0,.73-.05,1.1-.05A1.56,1.56,0,0,1,28.31,70,1.77,1.77,0,0,1,26.51,71.92Zm0-3.15a4.67,4.67,0,0,0-.57,0v2.62a2,2,0,0,0,.57.07,1.29,1.29,0,0,0,1.29-1.43A1.19,1.19,0,0,0,26.51,68.77Z"/><path class="cls-3" d="M31.05,71.93A1.87,1.87,0,0,1,30,71.61l.11-.52a1.54,1.54,0,0,0,.89.4c.42,0,.66-.18.66-.49s-.3-.49-.65-.69c-.55-.32-.93-.44-.93-1.07a1,1,0,0,1,1.07-.93,1.71,1.71,0,0,1,.91.24l-.12.49a1.38,1.38,0,0,0-.79-.29c-.31,0-.54.18-.54.42s.47.54.73.69.84.42.84,1A1.05,1.05,0,0,1,31.05,71.93Z"/><path class="cls-3" d="M34.43,72a1.64,1.64,0,0,1-1.68-1.76,1.77,1.77,0,0,1,1.82-1.91,1.85,1.85,0,0,1,.92.18l-.15.45a1.79,1.79,0,0,0-.79-.18,1.23,1.23,0,0,0-1.27,1.39,1.29,1.29,0,0,0,1.26,1.36,1.23,1.23,0,0,0,.84-.3l.19.38A1.79,1.79,0,0,1,34.43,72Z"/><path class="cls-3" d="M36.32,71.88V68.35h.48v3.53Z"/><path class="cls-3" d="M37.72,71.88V68.35h1.82v.43H38.2v1h1.21v.43H38.2v1.19h1.47v.44Z"/><path class="cls-3" d="M42.91,71.93,41,69.28v2.6H40.5V68.36l.4-.08,2,2.75V68.36h.45v3.5Z"/><path class="cls-3" d="M45.76,72a1.65,1.65,0,0,1-1.68-1.76,1.92,1.92,0,0,1,2.74-1.73l-.14.45a1.88,1.88,0,0,0-.79-.18,1.23,1.23,0,0,0-1.27,1.39,1.29,1.29,0,0,0,1.26,1.36,1.18,1.18,0,0,0,.83-.3l.2.38A1.84,1.84,0,0,1,45.76,72Z"/><path class="cls-3" d="M47.67,71.88V68.35h1.82v.43H48.16v1h1.2v.43h-1.2v1.19h1.47v.44Z"/><path class="cls-3" d="M51.25,71.93a1.86,1.86,0,0,1-1-.32l.1-.52a1.54,1.54,0,0,0,.89.4c.42,0,.66-.18.66-.49s-.29-.49-.65-.69c-.55-.32-.93-.44-.93-1.07a1,1,0,0,1,1.07-.93,1.71,1.71,0,0,1,.91.24l-.12.49a1.41,1.41,0,0,0-.79-.29c-.31,0-.54.18-.54.42s.47.54.73.69.84.42.84,1A1.05,1.05,0,0,1,51.25,71.93Z"/></g></g></svg>