<svg class="svg-brand-logo_small" viewBox="0 0 36 36" version="1.1" xmlns="http://www.w3.org/2000/svg"><g stroke="none" stroke-width="1" fill="none" fill-rule="evenodd"><path d="M6.295 35.967H35.92V6.382s0-5.993-6.004-5.993H6.292S.29.39.29 6.382v23.595c0-.001 0 5.99 6.006 5.99" fill="#FFFFFE"/><path d="M25.3 18.226c1.13-1.29 1.936-2.702 2.275-4.025.192-.735.237-1.45.112-2.1-.55-2.873-4.23-3.42-8.229-1.244l-.55-2.833-4.232 2.331.685 3.554c.442-.276.877-.448 1.276-.49 1.345-.143 1.724 1.325.852 3.271a8.44 8.44 0 0 1-1.221 1.916l.802 4.165.003.006.011.074c.613 2.818 4.295 3.338 8.29 1.136 3.95-2.18 6.726-6.204 6.316-9.083-.16 1.158-1.3 2.573-2.824 3.41-1.623.894-3.12.833-3.563-.076l-.002-.012M13.458 20.475c-1.346.132-1.728-1.338-.853-3.286a8.403 8.403 0 0 1 1.413-2.123l-.762-3.926-8.327 4.593 2.407 12.49 8.327-4.586-.73-3.8c-.506.354-1.017.588-1.475.638" fill="#C03"/></g></svg>